:SAMPLES-PER-SECOND 30
:FULLY-SPECIFIED
:DEGREES
19
root  23.17688859 39.59977758 15.67759927 -2.040070057 -2.356960058 -8.317420006
lowerback  8.986300468 2.573390007 5.766149998
upperback  0.8293300271 4.174550056 4.044270039
thorax  -4.06870985 1.99932003 0.4674839973
lowerneck  -16.50020027 -6.127029896 -15.60140038
upperneck  26.19440079 -6.70927 8.764510155
head  12.24909973 -3.48935008 4.908030033
lclavicle  0 -5.34481991e-014 2.981770104e-014
lhumerus  -50.66569901 12.20349979 81.55560303
lradius  -2.879428034e-031 -2.043951622e-031 35.3689003
lwrist  -3.531125038e-031 -0 2.366739988
lhand  -7.264822967e-031 -13.56219959 29.5435009
lfingers  90 7.125020027 -90
lthumb  93.13510157 13.80164752 77.06927207
rclavicle  0 -5.34481991e-014 2.981770104e-014
rhumerus  -23.30599976 -4.427060127 -79.56310272
rradius  2.999159708e-031 1.86383612e-031 31.85899925
rwrist  7.062250077e-031 -3.531125038e-031 2.557729959
rhand  -0 -18.41290092 13.40250015
rfingers  -90 -7.125020027 -90
rthumb  -85.73502251 -28.27552227 -81.05344823
rfemur  12.24860001 3.807840109 33.86610031
rtibia  -0 0 13.04039955
rfoot  -4.549860796e-032 -14.04179955 -2.184429884
rtoes  6.452010226 18.97117154 -109.1808362
lfemur  -26.21579933 2.415090084 -8.587630272
ltibia  -0 0 28.72599983
lfoot  4.448624734e-032 -7.162879944 5.488299847
ltoes  -3.224390183 -19.74888408 -99.46550827
20
root  23.21466611 39.58466597 16.03480061 -1.885179996 -2.286979914 -8.298700333
lowerback  8.621359825 2.630850077 5.796520233
upperback  0.8610900044 4.217840195 4.014619827
thorax  -3.825419903 2.026789904 0.434581995
lowerneck  -16.30330086 -6.124300003 -15.59519958
upperneck  26.00379944 -6.73210001 8.773799896
head  12.13710022 -3.497839928 4.902929783
lclavicle  0 -5.34481991e-014 2.981770104e-014
lhumerus  -50.87620163 12.28139973 81.5007019
lradius  -2.878639484e-031 -2.045062043e-031 35.39099884
lwrist  -1.059337512e-030 -0 2.398370028
lhand  -7.262408272e-031 -13.4829998 30.2404995
lfingers  90 7.125020027 -90
lthumb  93.31478409 14.47193374 76.95141594
rclavicle  0 -5.34481991e-014 2.981770104e-014
rhumerus  -23.25379944 -4.509349823 -79.54730225
rradius  2.976997537e-031 1.899033886e-031 32.53390121
rwrist  1.059337512e-030 -3.531125038e-031 2.408710003
rhand  -0 -18.32939911 13.36170006
rfingers  -90 -7.125020027 -90
rthumb  -85.69852398 -28.2321656 -80.96535426
rfemur  13.21350002 3.615659952 33.73550034
rtibia  -0 0 11.9197998
rfoot  -4.540787885e-032 -13.57649994 -2.16140008
rtoes  5.786085158 19.17763617 -107.1432903
lfemur  -26.33609962 2.014600039 -8.637949944
ltibia  -0 0 26.75049973
lfoot  4.451523318e-032 -7.45386982 4.962719917
ltoes  -2.949328293 -19.7901548 -98.65229887
21
root  23.24977785 39.56910982 16.39726594 -1.715749979 -2.325670004 -8.364089966
lowerback  8.226679802 2.698600054 5.886479855
upperback  1.000059962 4.271070004 4.027699947
thorax  -3.452280045 2.063070059 0.4175679982
lowerneck  -16.46820068 -6.197380066 -15.50839996
upperneck  25.88470078 -6.794069767 8.657019615
head  12.125 -3.524199963 4.825799942
lclavicle  0 -5.34481991e-014 2.981770104e-014
lhumerus  -50.99459839 12.42940044 81.55329895
lradius  -2.869193118e-031 -2.058294169e-031 35.65480042
lwrist  -1.059337512e-030 -3.531125038e-031 2.405970097
lhand  -7.263592357e-031 -13.52190018 30.19490051
lfingers  90 7.125020027 -90
lthumb  93.2950565 14.43191322 76.99259176
rclavicle  0 -5.34481991e-014 2.981770104e-014
rhumerus  -22.88820076 -4.493080139 -79.55680084
rradius  2.964601915e-031 1.918327272e-031 32.90599823
rwrist  1.059337512e-030 -0 2.218980074
rhand  -0 -18.17819977 13.50249958
rfingers  -90 -7.125020027 -90
rthumb  -85.59383576 -28.36563877 -80.78764075
rfemur  14.23029995 3.544120073 33.70249939
rtibia  -0 0 10.79559994
rfoot  -6.799716846e-032 -13.1704998 -2.096460104
rtoes  5.884682626 19.1486398 -107.4436545
lfemur  -26.49860001 1.866189957 -8.618060112
ltibia  -0 0 25.0923996
lfoot  4.455319387e-032 -7.818150043 4.097849846
ltoes  -2.901582425 -19.79693448 -98.51130257
22
root  23.28933355 39.56177779 16.76591137 -1.604310036 -2.467710018 -8.355770111
lowerback  8.152799606 2.817219973 5.924600124
upperback  0.9620379806 4.427209854 4.006340027
thorax  -3.441020012 2.139650106 0.3615179956
lowerneck  -16.54220009 -6.236450195 -15.4513998
upperneck  25.96619987 -6.83671999 8.582570076
head  12.17329979 -3.546309948 4.781239986
lclavicle  0 -5.34481991e-014 2.981770104e-014
lhumerus  -51.14210129 12.48670006 81.52780151
lradius  -2.876893023e-031 -2.047518149e-031 35.43989944
lwrist  -1.059337512e-030 -3.531125038e-031 2.310129881
lhand  -7.262894837e-031 -13.4989996 29.80529976
lfingers  90 7.125020027 -90
lthumb  93.20985911 14.04968974 76.99216423
rclavicle  0 -5.34481991e-014 2.981770104e-014
rhumerus  -22.83029938 -4.406469822 -79.53410339
rradius  2.957608168e-031 1.929092523e-031 33.11429977
rwrist  1.059337512e-030 -7.062250077e-031 1.65929997
rhand  -0 -18.39520073 16.16150093
rfingers  -90 -7.125020027 -90
rthumb  -85.22429612 -30.99921213 -80.7859874
rfemur  15.22259998 3.783430099 33.62379837
rtibia  -0 0 9.804169655
rfoot  -4.526388219e-032 -12.79990005 -2.052670002
rtoes  4.265524995 19.55806215 -102.5604059
lfemur  -26.60840034 1.920570016 -8.74009037
ltibia  -0 0 23.78930092
lfoot  4.460702841e-032 -8.306599617 3.099720001
ltoes  -2.996749359 -19.78330898 -98.7923823
23
root  23.32533288 39.55311212 17.14208858 -1.536829948 -2.504829884 -8.231249809
lowerback  8.17648983 2.901839972 5.821650028
upperback  0.8184559941 4.540520191 3.938169956
thorax  -3.602659941 2.191169977 0.3302789927
lowerneck  -16.47859955 -6.204060078 -15.40110016
upperneck  26.14669991 -6.817440033 8.558989525
head  12.22550011 -3.540659904 4.773409843
lclavicle  0 -5.34481991e-014 2.981770104e-014
lhumerus  -51.37659836 12.45359993 81.38069916
lradius  -2.892850003e-031 -2.02491059e-031 34.99089813
lwrist  0 -0 2.31137991
lhand  -7.261743298e-031 -13.46109962 30.36289978
lfingers  90 7.125020027 -90
lthumb  93.34851963 14.58867504 76.9225613
rclavicle  0 -5.34481991e-014 2.981770104e-014
rhumerus  -23.06270027 -4.310359955 -79.57990265
rradius  2.942798651e-031 1.951609627e-031 33.55160141
rwrist  3.531125038e-031 -0 1.294690013
rhand  -7.437622066e-031 -18.28079987 16.34230042
rfingers  -90 -7.125020027 -90
rthumb  -85.12312731 -31.17250072 -80.63956627
rfemur  16.14850044 3.915560007 33.43450165
rtibia  -0 0 8.963870049
rfoot  -4.520848254e-032 -12.48709965 -1.956859946
rtoes  3.467916408 19.70918094 -100.1869045
lfemur  -26.7541008 2.020859957 -9.036399841
ltibia  -0 0 22.86980057
lfoot  4.4699899e-032 -9.085680008 2.097660065
ltoes  -3.127762435 -19.7638129 -99.17964565
24
root  23.3588887 39.52622301 17.51573367 -1.408949971 -2.403919935 -8.17798996
lowerback  7.919250011 2.890160084 5.730639935
upperback  0.8700219989 4.490190029 3.921370029
thorax  -3.412070036 2.173180103 0.3842769861
lowerneck  -16.66139984 -6.256770134 -15.34140015
upperneck  26.18289948 -6.854710102 8.464870453
head  12.27659988 -3.559190035 4.718470097
lclavicle  0 -5.34481991e-014 2.981770104e-014
lhumerus  -51.2195015 12.78059959 81.19020081
lradius  -2.912060002e-031 -1.997185666e-031 34.4435997
lwrist  -7.062250077e-031 -3.531125038e-031 2.179409981
lhand  -0 -9.251520157 39.25519943
lfingers  90 7.125020027 -90
lthumb  97.14282677 22.5063993 71.87271844
rclavicle  0 -5.34481991e-014 2.981770104e-014
rhumerus  -22.74539948 -4.160280228 -79.71459961
rradius  2.933377137e-031 1.965742253e-031 33.82720184
rwrist  1.412450015e-030 -0 1.259989977
rhand  -7.426633132e-031 -18.0223999 15.82089996
rfingers  -90 -7.125020027 -90
rthumb  -85.07256152 -30.646371 -80.40033156
rfemur  16.88640022 3.915620089 33.33969879
rtibia  -0 0 8.350310326
rfoot  -4.515288018e-032 -12.1644001 -1.909190059
rtoes  3.345649024 19.72948755 -99.82453836
lfemur  -27.00469971 2.427560091 -9.383239746
ltibia  -0 0 22.2859993
lfoot  4.483616079e-032 -10.11660004 0.8738840222
ltoes  -3.281883173 -19.73977954 -99.63569458
